<svg xmlns="http://www.w3.org/2000/svg" viewBox="0 0 900 700">
  <!-- Background -->
  <rect width="900" height="700" fill="#f8f9fa" rx="10" ry="10" stroke="#d6d8db" stroke-width="2"/>
  
  <!-- Title -->
  <text x="450" y="50" font-family="Arial, sans-serif" font-size="32" font-weight="bold" text-anchor="middle" fill="#343a40">Immutable Database Design Patterns</text>
  
  <!-- Pattern 1: Event Sourcing -->
  <rect x="50" y="90" width="380" height="180" rx="10" ry="10" fill="#6610f2" opacity="0.1" stroke="#6610f2" stroke-width="2"/>
  <text x="240" y="120" font-family="Arial, sans-serif" font-size="22" font-weight="bold" text-anchor="middle" fill="#6610f2">Event Sourcing</text>
  
  <!-- Event Sourcing Diagram -->
  <rect x="70" y="135" width="340" height="115" rx="5" ry="5" fill="#ffffff" stroke="#6610f2" stroke-width="1"/>
  <rect x="80" y="145" width="100" height="25" rx="3" ry="3" fill="#6610f2" opacity="0.2"/>
  <rect x="190" y="145" width="100" height="25" rx="3" ry="3" fill="#6610f2" opacity="0.2"/>
  <rect x="300" y="145" width="100" height="25" rx="3" ry="3" fill="#6610f2" opacity="0.2"/>
  <text x="130" y="162" font-family="Arial, sans-serif" font-size="12" text-anchor="middle">UserCreated</text>
  <text x="240" y="162" font-family="Arial, sans-serif" font-size="12" text-anchor="middle">EmailChanged</text>
  <text x="350" y="162" font-family="Arial, sans-serif" font-size="12" text-anchor="middle">ProfileUpdated</text>
  
  <polyline points="130,170 130,195 240,195" fill="none" stroke="#6610f2" stroke-width="2" marker-end="url(#arrowhead)"/>
  <polyline points="240,170 240,195 350,195" fill="none" stroke="#6610f2" stroke-width="2" marker-end="url(#arrowhead)"/>
  
  <rect x="80" y="210" width="320" height="30" rx="3" ry="3" fill="#6610f2" opacity="0.1"/>
  <text x="240" y="230" font-family="Arial, sans-serif" font-size="14" text-anchor="middle">Current State = Replay of All Events</text>
  
  <!-- Pattern 2: Command Query Responsibility Segregation (CQRS) -->
  <rect x="470" y="90" width="380" height="180" rx="10" ry="10" fill="#fd7e14" opacity="0.1" stroke="#fd7e14" stroke-width="2"/>
  <text x="660" y="120" font-family="Arial, sans-serif" font-size="22" font-weight="bold" text-anchor="middle" fill="#fd7e14">CQRS</text>
  
  <!-- CQRS Diagram -->
  <rect x="490" y="135" width="340" height="115" rx="5" ry="5" fill="#ffffff" stroke="#fd7e14" stroke-width="1"/>
  
  <rect x="510" y="150" width="120" height="40" rx="5" ry="5" fill="#fd7e14" opacity="0.2"/>
  <text x="570" y="175" font-family="Arial, sans-serif" font-size="14" text-anchor="middle">Command Model</text>
  
  <rect x="690" y="150" width="120" height="40" rx="5" ry="5" fill="#fd7e14" opacity="0.2"/>
  <text x="750" y="175" font-family="Arial, sans-serif" font-size="14" text-anchor="middle">Query Model</text>
  
  <line x1="630" y1="170" x2="690" y2="170" stroke="#fd7e14" stroke-width="2" marker-end="url(#arrowhead)"/>
  
  <text x="660" y="145" font-family="Arial, sans-serif" font-size="12" text-anchor="middle" fill="#6c757d">Sync</text>
  
  <text x="570" y="210" font-family="Arial, sans-serif" font-size="12" text-anchor="middle">Write Operations</text>
  <text x="750" y="210" font-family="Arial, sans-serif" font-size="12" text-anchor="middle">Read Operations</text>
  
  <!-- Pattern 3: Append-Only Log -->
  <rect x="50" y="290" width="380" height="180" rx="10" ry="10" fill="#20c997" opacity="0.1" stroke="#20c997" stroke-width="2"/>
  <text x="240" y="320" font-family="Arial, sans-serif" font-size="22" font-weight="bold" text-anchor="middle" fill="#20c997">Append-Only Log</text>
  
  <!-- Append-Only Log Diagram -->
  <rect x="70" y="335" width="340" height="115" rx="5" ry="5" fill="#ffffff" stroke="#20c997" stroke-width="1"/>
  
  <rect x="80" y="350" width="60" height="35" rx="3" ry="3" fill="#20c997" opacity="0.2"/>
  <text x="110" y="373" font-family="Arial, sans-serif" font-size="14" text-anchor="middle">Log 1</text>
  
  <rect x="150" y="350" width="60" height="35" rx="3" ry="3" fill="#20c997" opacity="0.2"/>
  <text x="180" y="373" font-family="Arial, sans-serif" font-size="14" text-anchor="middle">Log 2</text>
  
  <rect x="220" y="350" width="60" height="35" rx="3" ry="3" fill="#20c997" opacity="0.2"/>
  <text x="250" y="373" font-family="Arial, sans-serif" font-size="14" text-anchor="middle">Log 3</text>
  
  <rect x="290" y="350" width="60" height="35" rx="3" ry="3" fill="#20c997" opacity="0.3"/>
  <text x="320" y="373" font-family="Arial, sans-serif" font-size="14" text-anchor="middle">Log 4</text>
  
  <line x1="80" y1="405" x2="350" y2="405" stroke="#20c997" stroke-width="2"/>
  <polygon points="350,405 340,400 340,410" fill="#20c997"/>
  
  <text x="100" y="425" font-family="Arial, sans-serif" font-size="14" fill="#20c997">Oldest</text>
  <text x="320" y="425" font-family="Arial, sans-serif" font-size="14" fill="#20c997" text-anchor="end">Newest</text>
  
  <!-- Pattern 4: Temporal Tables -->
  <rect x="470" y="290" width="380" height="180" rx="10" ry="10" fill="#e83e8c" opacity="0.1" stroke="#e83e8c" stroke-width="2"/>
  <text x="660" y="320" font-family="Arial, sans-serif" font-size="22" font-weight="bold" text-anchor="middle" fill="#e83e8c">Temporal Tables</text>
  
  <!-- Temporal Tables Diagram -->
  <rect x="490" y="335" width="340" height="115" rx="5" ry="5" fill="#ffffff" stroke="#e83e8c" stroke-width="1"/>
  
  <rect x="500" y="345" width="320" height="25" rx="0" ry="0" fill="#e83e8c" opacity="0.2"/>
  <text x="510" y="362" font-family="Arial, sans-serif" font-size="12">ID</text>
  <text x="570" y="362" font-family="Arial, sans-serif" font-size="12">Name</text>
  <text x="650" y="362" font-family="Arial, sans-serif" font-size="12">Valid From</text>
  <text x="750" y="362" font-family="Arial, sans-serif" font-size="12">Valid To</text>
  
  <rect x="500" y="370" width="320" height="20" rx="0" ry="0" fill="#ffffff" stroke="#dee2e6" stroke-width="1"/>
  <text x="510" y="385" font-family="Arial, sans-serif" font-size="12">101</text>
  <text x="570" y="385" font-family="Arial, sans-serif" font-size="12">John</text>
  <text x="650" y="385" font-family="Arial, sans-serif" font-size="12">2023-01-01</text>
  <text x="750" y="385" font-family="Arial, sans-serif" font-size="12">2023-06-30</text>
  
  <rect x="500" y="390" width="320" height="20" rx="0" ry="0" fill="#ffffff" stroke="#dee2e6" stroke-width="1"/>
  <text x="510" y="405" font-family="Arial, sans-serif" font-size="12">101</text>
  <text x="570" y="405" font-family="Arial, sans-serif" font-size="12">John Doe</text>
  <text x="650" y="405" font-family="Arial, sans-serif" font-size="12">2023-07-01</text>
  <text x="750" y="405" font-family="Arial, sans-serif" font-size="12">9999-12-31</text>
  
  <rect x="500" y="410" width="320" height="20" rx="0" ry="0" fill="#ffffff" stroke="#dee2e6" stroke-width="1"/>
  <text x="510" y="425" font-family="Arial, sans-serif" font-size="12">102</text>
  <text x="570" y="425" font-family="Arial, sans-serif" font-size="12">Jane Smith</text>
  <text x="650" y="425" font-family="Arial, sans-serif" font-size="12">2023-01-15</text>
  <text x="750" y="425" font-family="Arial, sans-serif" font-size="12">9999-12-31</text>
  
  <!-- Pattern 5: Snapshot Pattern -->
  <rect x="50" y="490" width="380" height="180" rx="10" ry="10" fill="#0d6efd" opacity="0.1" stroke="#0d6efd" stroke-width="2"/>
  <text x="240" y="520" font-family="Arial, sans-serif" font-size="22" font-weight="bold" text-anchor="middle" fill="#0d6efd">Snapshot Pattern</text>
  
  <!-- Snapshot Pattern Diagram -->
  <rect x="70" y="535" width="340" height="115" rx="5" ry="5" fill="#ffffff" stroke="#0d6efd" stroke-width="1"/>
  
  <!-- Events -->
  <rect x="80" y="545" width="40" height="20" rx="3" ry="3" fill="#0d6efd" opacity="0.2"/>
  <rect x="125" y="545" width="40" height="20" rx="3" ry="3" fill="#0d6efd" opacity="0.2"/>
  <rect x="170" y="545" width="40" height="20" rx="3" ry="3" fill="#0d6efd" opacity="0.2"/>
  <rect x="215" y="545" width="40" height="20" rx="3" ry="3" fill="#0d6efd" opacity="0.2"/>
  <rect x="260" y="545" width="40" height="20" rx="3" ry="3" fill="#0d6efd" opacity="0.2"/>
  <rect x="305" y="545" width="40" height="20" rx="3" ry="3" fill="#0d6efd" opacity="0.2"/>
  <rect x="350" y="545" width="40" height="20" rx="3" ry="3" fill="#0d6efd" opacity="0.2"/>
  
  <!-- Snapshot -->
  <rect x="170" y="585" width="80" height="40" rx="5" ry="5" fill="#0d6efd" opacity="0.3"/>
  <text x="210" y="610" font-family="Arial, sans-serif" font-size="14" text-anchor="middle">Snapshot</text>
  
  <!-- Arrows -->
  <line x1="100" y1="565" x2="100" y2="585" stroke="#0d6efd" stroke-width="1"/>
  <line x1="145" y1="565" x2="145" y2="585" stroke="#0d6efd" stroke-width="1"/>
  <line x1="190" y1="565" x2="190" y2="585" stroke="#0d6efd" stroke-width="1"/>
  <line x1="210" y1="625" x2="210" y2="635" stroke="#0d6efd" stroke-width="1"/>
  <line x1="100" y1="585" x2="170" y2="585" stroke="#0d6efd" stroke-width="1"/>
  <line x1="100" y1="635" x2="325" y2="635" stroke="#0d6efd" stroke-width="1"/>
  <line x1="325" y1="565" x2="325" y2="635" stroke="#0d6efd" stroke-width="1"/>
  <text x="215" y="650" font-family="Arial, sans-serif" font-size="12" text-anchor="middle" fill="#0d6efd">Only replay events after snapshot</text>
  
  <!-- Pattern 6: Materialized View -->
  <rect x="470" y="490" width="380" height="180" rx="10" ry="10" fill="#dc3545" opacity="0.1" stroke="#dc3545" stroke-width="2"/>
  <text x="660" y="520" font-family="Arial, sans-serif" font-size="22" font-weight="bold" text-anchor="middle" fill="#dc3545">Materialized View</text>
  
  <!-- Materialized View Diagram -->
  <rect x="490" y="535" width="340" height="115" rx="5" ry="5" fill="#ffffff" stroke="#dc3545" stroke-width="1"/>
  
  <!-- Source Tables -->
  <rect x="510" y="545" width="80" height="40" rx="5" ry="5" fill="#dc3545" opacity="0.1"/>
  <text x="550" y="570" font-family="Arial, sans-serif" font-size="12" text-anchor="middle">Events</text>
  
  <rect x="510" y="595" width="80" height="40" rx="5" ry="5" fill="#dc3545" opacity="0.1"/>
  <text x="550" y="620" font-family="Arial, sans-serif" font-size="12" text-anchor="middle">Changes</text>
  
  <!-- Materialized View -->
  <rect x="650" y="570" width="160" height="40" rx="5" ry="5" fill="#dc3545" opacity="0.2"/>
  <text x="730" y="595" font-family="Arial, sans-serif" font-size="14" text-anchor="middle">Materialized View</text>
  
  <!-- Arrows -->
  <line x1="590" y1="565" x2="650" y2="585" stroke="#dc3545" stroke-width="2" marker-end="url(#arrowhead)"/>
  <line x1="590" y1="615" x2="650" y2="595" stroke="#dc3545" stroke-width="2" marker-end="url(#arrowhead)"/>
  
  <text x="610" y="555" font-family="Arial, sans-serif" font-size="12" fill="#6c757d">Transform</text>
  <text x="610" y="625" font-family="Arial, sans-serif" font-size="12" fill="#6c757d">Update</text>
  
  <!-- Defs for markers -->
  <defs>
    <marker id="arrowhead" markerWidth="10" markerHeight="7" refX="9" refY="3.5" orient="auto">
      <polygon points="0 0, 10 3.5, 0 7" fill="#000000" />
    </marker>
  </defs>
</svg>
